<svg xmlns="http://www.w3.org/2000/svg" viewBox="0 0 520 320" role="img" aria-labelledby="title desc">
  <title>Azadi Ka Amrit Mahotsav logo</title>
  <desc>Stylised 75 mark with chakra and tricolour waves above the text Azadi Ka Amrit Mahotsav.</desc>
  <defs>
    <linearGradient id="waveOrange" x1="0%" y1="0%" x2="100%" y2="0%">
      <stop offset="0%" stop-color="#f2994a" />
      <stop offset="100%" stop-color="#f47920" />
    </linearGradient>
    <linearGradient id="waveGreen" x1="0%" y1="0%" x2="100%" y2="0%">
      <stop offset="0%" stop-color="#00a86b" />
      <stop offset="100%" stop-color="#00904a" />
    </linearGradient>
  </defs>
  <g stroke="#8c7a55" stroke-width="18" stroke-linecap="round" stroke-linejoin="round" fill="none">
    <line x1="40" y1="70" x2="210" y2="70" />
    <line x1="40" y1="70" x2="170" y2="220" />
    <path d="M230 70 h170 l-90 95 h85 l-10 110 h-160" />
  </g>
  <g transform="translate(180 30)">
    <circle cx="50" cy="100" r="38" fill="#fff" stroke="#8c7a55" stroke-width="8" />
    <g stroke="#8c7a55" stroke-width="3">
      <line x1="50" y1="62" x2="50" y2="138" />
      <line x1="12" y1="100" x2="88" y2="100" />
      <line x1="23" y1="72" x2="77" y2="128" />
      <line x1="77" y1="72" x2="23" y2="128" />
    </g>
  </g>
  <path d="M160 110 C220 70 310 40 380 65 C430 82 470 80 498 60 C482 88 438 100 380 100 C320 100 270 140 210 150 C180 155 150 140 160 110 Z" fill="url(#waveOrange)" opacity="0.9" />
  <path d="M150 170 C210 150 300 130 372 150 C430 168 470 165 500 150 C484 178 440 188 380 188 C320 188 270 220 208 236 C178 244 150 228 150 170 Z" fill="url(#waveGreen)" opacity="0.95" />
  <g fill="#8c7a55" font-family="'Inter', 'Segoe UI', sans-serif" font-weight="600">
    <text x="60" y="250" font-size="60">Azadi Ka</text>
    <text x="60" y="305" font-size="60">Amrit Mahotsav</text>
  </g>
</svg>
